<svg xmlns="http://www.w3.org/2000/svg" xmlns:xlink="http://www.w3.org/1999/xlink" width="500" zoomAndPan="magnify" viewBox="0 0 375 374.999991" height="500" preserveAspectRatio="xMidYMid meet" version="1.0"><defs><g/></defs><g fill="#5168c4" fill-opacity="1"><g transform="translate(6.022601, 211.939071)"><g><path d="M 19.140625 0.8125 C 15.921875 0.8125 13.035156 0.132812 10.484375 -1.21875 C 7.941406 -2.582031 5.929688 -4.707031 4.453125 -7.59375 C 2.984375 -10.476562 2.25 -14.191406 2.25 -18.734375 C 2.25 -22.867188 2.960938 -26.804688 4.390625 -30.546875 C 5.828125 -34.296875 7.789062 -37.625 10.28125 -40.53125 C 12.78125 -43.4375 15.628906 -45.726562 18.828125 -47.40625 C 22.035156 -49.09375 25.390625 -49.9375 28.890625 -49.9375 C 33.203125 -49.9375 36.4375 -49.050781 38.59375 -47.28125 C 40.75 -45.507812 41.828125 -43.144531 41.828125 -40.1875 C 41.828125 -38.195312 41.441406 -36.359375 40.671875 -34.671875 C 39.898438 -32.992188 38.890625 -31.53125 37.640625 -30.28125 C 36.390625 -29.03125 35.0625 -28.0625 33.65625 -27.375 C 32.25 -26.695312 30.910156 -26.359375 29.640625 -26.359375 C 28.679688 -26.359375 27.972656 -26.640625 27.515625 -27.203125 C 27.066406 -27.773438 27.023438 -28.425781 27.390625 -29.15625 C 29.160156 -32.519531 29.757812 -34.945312 29.1875 -36.4375 C 28.625 -37.9375 27.390625 -38.6875 25.484375 -38.6875 C 23.429688 -38.6875 21.578125 -38.050781 19.921875 -36.78125 C 18.265625 -35.507812 16.957031 -33.863281 16 -31.84375 C 15.050781 -29.820312 14.578125 -27.675781 14.578125 -25.40625 C 14.578125 -23.363281 15.066406 -21.5 16.046875 -19.8125 C 17.023438 -18.132812 18.5 -16.785156 20.46875 -15.765625 C 22.445312 -14.742188 24.9375 -14.234375 27.9375 -14.234375 C 30.070312 -14.234375 32.238281 -14.550781 34.4375 -15.1875 C 36.632812 -15.820312 38.300781 -16.984375 39.4375 -18.671875 C 39.800781 -19.210938 40.265625 -19.398438 40.828125 -19.234375 C 41.398438 -19.078125 41.878906 -18.769531 42.265625 -18.3125 C 42.648438 -17.863281 42.734375 -17.414062 42.515625 -16.96875 C 39.648438 -11.195312 36.351562 -6.789062 32.625 -3.75 C 28.90625 -0.707031 24.410156 0.8125 19.140625 0.8125 Z M 19.140625 0.8125 "/></g></g></g><g fill="#5168c4" fill-opacity="1"><g transform="translate(43.901939, 211.939071)"><g><path d="M 4.625 0 C 2.675781 0 1.300781 -0.664062 0.5 -2 C -0.289062 -3.34375 -0.6875 -5.015625 -0.6875 -7.015625 C -0.6875 -8.742188 -0.46875 -10.628906 -0.03125 -12.671875 C 0.394531 -14.710938 0.953125 -16.710938 1.640625 -18.671875 C 3.953125 -25.296875 5.914062 -30.851562 7.53125 -35.34375 C 9.144531 -39.84375 10.695312 -43.238281 12.1875 -45.53125 C 13.6875 -47.832031 15.347656 -48.984375 17.171875 -48.984375 C 18.578125 -48.984375 19.445312 -48.457031 19.78125 -47.40625 C 20.125 -46.363281 19.796875 -44.753906 18.796875 -42.578125 C 17.941406 -40.628906 17 -38.734375 15.96875 -36.890625 C 14.945312 -35.046875 14.234375 -33.332031 13.828125 -31.75 C 13.460938 -30.34375 13.492188 -29.546875 13.921875 -29.359375 C 14.359375 -29.179688 14.941406 -29.453125 15.671875 -30.171875 C 16.941406 -31.398438 18.253906 -32.351562 19.609375 -33.03125 C 20.972656 -33.71875 22.40625 -34.0625 23.90625 -34.0625 C 26 -34.0625 27.546875 -33.445312 28.546875 -32.21875 C 29.546875 -31 30.046875 -29.523438 30.046875 -27.796875 C 30.046875 -26.617188 29.863281 -25.539062 29.5 -24.5625 C 29.132812 -23.582031 28.769531 -22.625 28.40625 -21.6875 C 28.039062 -20.757812 27.859375 -19.726562 27.859375 -18.59375 C 27.859375 -16.320312 28.90625 -15.1875 31 -15.1875 C 32.039062 -15.1875 32.910156 -15.515625 33.609375 -16.171875 C 34.316406 -16.835938 35.015625 -17.671875 35.703125 -18.671875 C 36.066406 -19.210938 36.539062 -19.398438 37.125 -19.234375 C 37.71875 -19.078125 38.207031 -18.769531 38.59375 -18.3125 C 38.976562 -17.863281 39.035156 -17.414062 38.765625 -16.96875 C 38.304688 -16.238281 37.757812 -15.179688 37.125 -13.796875 C 36.488281 -12.410156 35.726562 -10.929688 34.84375 -9.359375 C 33.957031 -7.796875 32.921875 -6.296875 31.734375 -4.859375 C 30.554688 -3.429688 29.226562 -2.265625 27.75 -1.359375 C 26.28125 -0.453125 24.613281 0 22.75 0 C 20.53125 0 18.976562 -0.703125 18.09375 -2.109375 C 17.207031 -3.515625 16.765625 -5.171875 16.765625 -7.078125 C 16.765625 -8.804688 17.035156 -10.453125 17.578125 -12.015625 C 18.117188 -13.585938 18.648438 -15.019531 19.171875 -16.3125 C 19.691406 -17.601562 19.953125 -18.707031 19.953125 -19.625 C 19.953125 -20.394531 19.710938 -20.984375 19.234375 -21.390625 C 18.765625 -21.796875 18.144531 -22 17.375 -22 C 16.050781 -22 14.832031 -21.441406 13.71875 -20.328125 C 12.613281 -19.222656 11.71875 -17.785156 11.03125 -16.015625 C 10.351562 -14.242188 10.015625 -12.332031 10.015625 -10.28125 L 10.015625 -7.21875 C 10.015625 -6.082031 9.878906 -4.957031 9.609375 -3.84375 C 9.335938 -2.738281 8.8125 -1.820312 8.03125 -1.09375 C 7.257812 -0.363281 6.125 0 4.625 0 Z M 4.625 0 "/></g></g></g><g fill="#5168c4" fill-opacity="1"><g transform="translate(78.034221, 211.939071)"><g><path d="M 7.21875 0 C 4.90625 0 3.15625 -0.953125 1.96875 -2.859375 C 0.789062 -4.765625 0.203125 -7.238281 0.203125 -10.28125 C 0.203125 -12.1875 0.441406 -14.21875 0.921875 -16.375 C 1.398438 -18.539062 2.101562 -20.664062 3.03125 -22.75 C 3.957031 -24.84375 5.125 -26.738281 6.53125 -28.4375 C 7.945312 -30.144531 9.582031 -31.507812 11.4375 -32.53125 C 13.300781 -33.550781 15.414062 -34.0625 17.78125 -34.0625 C 19.144531 -34.0625 20.203125 -33.9375 20.953125 -33.6875 C 21.703125 -33.4375 22.269531 -33.128906 22.65625 -32.765625 C 23.039062 -32.398438 23.367188 -32.09375 23.640625 -31.84375 C 23.910156 -31.59375 24.273438 -31.46875 24.734375 -31.46875 C 25.503906 -31.46875 26.125 -31.679688 26.59375 -32.109375 C 27.070312 -32.546875 27.609375 -32.976562 28.203125 -33.40625 C 28.796875 -33.84375 29.613281 -34.0625 30.65625 -34.0625 C 31.5625 -34.0625 32.1875 -33.832031 32.53125 -33.375 C 32.875 -32.925781 33.046875 -32.316406 33.046875 -31.546875 C 33.046875 -30.273438 32.691406 -29.015625 31.984375 -27.765625 C 31.273438 -26.515625 30.535156 -24.890625 29.765625 -22.890625 C 28.628906 -20.390625 28.207031 -18.476562 28.5 -17.15625 C 28.800781 -15.84375 29.703125 -15.1875 31.203125 -15.1875 C 32.378906 -15.1875 33.398438 -15.492188 34.265625 -16.109375 C 35.128906 -16.722656 35.898438 -17.578125 36.578125 -18.671875 C 36.941406 -19.210938 37.40625 -19.398438 37.96875 -19.234375 C 38.539062 -19.078125 39.019531 -18.769531 39.40625 -18.3125 C 39.789062 -17.863281 39.875 -17.414062 39.65625 -16.96875 C 38.832031 -15.375 37.953125 -13.609375 37.015625 -11.671875 C 36.085938 -9.742188 35.054688 -7.894531 33.921875 -6.125 C 32.785156 -4.351562 31.488281 -2.890625 30.03125 -1.734375 C 28.582031 -0.578125 26.90625 0 25 0 C 22.632812 0 20.960938 -0.953125 19.984375 -2.859375 C 19.015625 -4.765625 18.734375 -7.128906 19.140625 -9.953125 L 18.875 -9.953125 C 17.507812 -7.179688 15.828125 -4.828125 13.828125 -2.890625 C 11.828125 -0.960938 9.625 0 7.21875 0 Z M 14.03125 -14.109375 C 15.21875 -14.109375 16.253906 -14.445312 17.140625 -15.125 C 18.023438 -15.800781 18.710938 -16.628906 19.203125 -17.609375 C 19.703125 -18.585938 19.953125 -19.550781 19.953125 -20.5 C 19.953125 -21.632812 19.632812 -22.519531 19 -23.15625 C 18.363281 -23.789062 17.503906 -24.109375 16.421875 -24.109375 C 15.234375 -24.109375 14.207031 -23.789062 13.34375 -23.15625 C 12.488281 -22.519531 11.820312 -21.710938 11.34375 -20.734375 C 10.863281 -19.765625 10.625 -18.78125 10.625 -17.78125 C 10.625 -16.644531 10.929688 -15.75 11.546875 -15.09375 C 12.160156 -14.4375 12.988281 -14.109375 14.03125 -14.109375 Z M 14.03125 -14.109375 "/></g></g></g><g fill="#5168c4" fill-opacity="1"><g transform="translate(113.052165, 211.939071)"><g><path d="M 6.875 0 C 4.332031 0 2.457031 -0.78125 1.25 -2.34375 C 0.0507812 -3.914062 -0.546875 -5.960938 -0.546875 -8.484375 C -0.546875 -11.003906 -0.046875 -13.71875 0.953125 -16.625 C 1.546875 -18.351562 2.203125 -20.210938 2.921875 -22.203125 C 3.648438 -24.203125 4.445312 -26.382812 5.3125 -28.75 C 4.3125 -28.75 3.550781 -29.007812 3.03125 -29.53125 C 2.507812 -30.050781 2.164062 -30.660156 2 -31.359375 C 1.84375 -32.066406 1.84375 -32.679688 2 -33.203125 C 2.164062 -33.734375 2.453125 -34 2.859375 -34 C 4.859375 -34 6.425781 -34.550781 7.5625 -35.65625 C 8.695312 -36.769531 9.492188 -37.941406 9.953125 -39.171875 C 10.765625 -41.171875 11.554688 -42.429688 12.328125 -42.953125 C 13.097656 -43.472656 13.914062 -43.734375 14.78125 -43.734375 C 16.050781 -43.734375 16.84375 -43.195312 17.15625 -42.125 C 17.476562 -41.0625 17.117188 -39.460938 16.078125 -37.328125 C 15.578125 -36.242188 15.300781 -35.414062 15.25 -34.84375 C 15.207031 -34.28125 15.503906 -34 16.140625 -34 L 19.6875 -34 C 20.144531 -34 20.441406 -33.679688 20.578125 -33.046875 C 20.710938 -32.410156 20.695312 -31.679688 20.53125 -30.859375 C 20.375 -30.046875 20.078125 -29.320312 19.640625 -28.6875 C 19.210938 -28.050781 18.660156 -27.734375 17.984375 -27.734375 C 15.890625 -27.734375 14.34375 -27.648438 13.34375 -27.484375 C 12.351562 -27.328125 11.648438 -26.929688 11.234375 -26.296875 C 10.828125 -25.660156 10.398438 -24.570312 9.953125 -23.03125 C 9.222656 -20.664062 9.320312 -18.78125 10.25 -17.375 C 11.1875 -15.96875 12.648438 -15.265625 14.640625 -15.265625 C 16.003906 -15.265625 17.21875 -15.566406 18.28125 -16.171875 C 19.351562 -16.785156 20.234375 -17.617188 20.921875 -18.671875 C 21.273438 -19.210938 21.734375 -19.398438 22.296875 -19.234375 C 22.867188 -19.078125 23.347656 -18.769531 23.734375 -18.3125 C 24.128906 -17.863281 24.210938 -17.414062 23.984375 -16.96875 C 23.566406 -16.195312 23.019531 -15.128906 22.34375 -13.765625 C 21.664062 -12.398438 20.847656 -10.921875 19.890625 -9.328125 C 18.941406 -7.742188 17.828125 -6.242188 16.546875 -4.828125 C 15.273438 -3.421875 13.832031 -2.265625 12.21875 -1.359375 C 10.613281 -0.453125 8.832031 0 6.875 0 Z M 6.875 0 "/></g></g></g><g fill="#9face1" fill-opacity="1"><g transform="translate(3.011372, 208.927837)"><g><path d="M 19.140625 0.8125 C 15.921875 0.8125 13.035156 0.132812 10.484375 -1.21875 C 7.941406 -2.582031 5.929688 -4.707031 4.453125 -7.59375 C 2.984375 -10.476562 2.25 -14.191406 2.25 -18.734375 C 2.25 -22.867188 2.960938 -26.804688 4.390625 -30.546875 C 5.828125 -34.296875 7.789062 -37.625 10.28125 -40.53125 C 12.78125 -43.4375 15.628906 -45.726562 18.828125 -47.40625 C 22.035156 -49.09375 25.390625 -49.9375 28.890625 -49.9375 C 33.203125 -49.9375 36.4375 -49.050781 38.59375 -47.28125 C 40.75 -45.507812 41.828125 -43.144531 41.828125 -40.1875 C 41.828125 -38.195312 41.441406 -36.359375 40.671875 -34.671875 C 39.898438 -32.992188 38.890625 -31.53125 37.640625 -30.28125 C 36.390625 -29.03125 35.0625 -28.0625 33.65625 -27.375 C 32.25 -26.695312 30.910156 -26.359375 29.640625 -26.359375 C 28.679688 -26.359375 27.972656 -26.640625 27.515625 -27.203125 C 27.066406 -27.773438 27.023438 -28.425781 27.390625 -29.15625 C 29.160156 -32.519531 29.757812 -34.945312 29.1875 -36.4375 C 28.625 -37.9375 27.390625 -38.6875 25.484375 -38.6875 C 23.429688 -38.6875 21.578125 -38.050781 19.921875 -36.78125 C 18.265625 -35.507812 16.957031 -33.863281 16 -31.84375 C 15.050781 -29.820312 14.578125 -27.675781 14.578125 -25.40625 C 14.578125 -23.363281 15.066406 -21.5 16.046875 -19.8125 C 17.023438 -18.132812 18.5 -16.785156 20.46875 -15.765625 C 22.445312 -14.742188 24.9375 -14.234375 27.9375 -14.234375 C 30.070312 -14.234375 32.238281 -14.550781 34.4375 -15.1875 C 36.632812 -15.820312 38.300781 -16.984375 39.4375 -18.671875 C 39.800781 -19.210938 40.265625 -19.398438 40.828125 -19.234375 C 41.398438 -19.078125 41.878906 -18.769531 42.265625 -18.3125 C 42.648438 -17.863281 42.734375 -17.414062 42.515625 -16.96875 C 39.648438 -11.195312 36.351562 -6.789062 32.625 -3.75 C 28.90625 -0.707031 24.410156 0.8125 19.140625 0.8125 Z M 19.140625 0.8125 "/></g></g></g><g fill="#9face1" fill-opacity="1"><g transform="translate(40.89071, 208.927837)"><g><path d="M 4.625 0 C 2.675781 0 1.300781 -0.664062 0.5 -2 C -0.289062 -3.34375 -0.6875 -5.015625 -0.6875 -7.015625 C -0.6875 -8.742188 -0.46875 -10.628906 -0.03125 -12.671875 C 0.394531 -14.710938 0.953125 -16.710938 1.640625 -18.671875 C 3.953125 -25.296875 5.914062 -30.851562 7.53125 -35.34375 C 9.144531 -39.84375 10.695312 -43.238281 12.1875 -45.53125 C 13.6875 -47.832031 15.347656 -48.984375 17.171875 -48.984375 C 18.578125 -48.984375 19.445312 -48.457031 19.78125 -47.40625 C 20.125 -46.363281 19.796875 -44.753906 18.796875 -42.578125 C 17.941406 -40.628906 17 -38.734375 15.96875 -36.890625 C 14.945312 -35.046875 14.234375 -33.332031 13.828125 -31.75 C 13.460938 -30.34375 13.492188 -29.546875 13.921875 -29.359375 C 14.359375 -29.179688 14.941406 -29.453125 15.671875 -30.171875 C 16.941406 -31.398438 18.253906 -32.351562 19.609375 -33.03125 C 20.972656 -33.71875 22.40625 -34.0625 23.90625 -34.0625 C 26 -34.0625 27.546875 -33.445312 28.546875 -32.21875 C 29.546875 -31 30.046875 -29.523438 30.046875 -27.796875 C 30.046875 -26.617188 29.863281 -25.539062 29.5 -24.5625 C 29.132812 -23.582031 28.769531 -22.625 28.40625 -21.6875 C 28.039062 -20.757812 27.859375 -19.726562 27.859375 -18.59375 C 27.859375 -16.320312 28.90625 -15.1875 31 -15.1875 C 32.039062 -15.1875 32.910156 -15.515625 33.609375 -16.171875 C 34.316406 -16.835938 35.015625 -17.671875 35.703125 -18.671875 C 36.066406 -19.210938 36.539062 -19.398438 37.125 -19.234375 C 37.71875 -19.078125 38.207031 -18.769531 38.59375 -18.3125 C 38.976562 -17.863281 39.035156 -17.414062 38.765625 -16.96875 C 38.304688 -16.238281 37.757812 -15.179688 37.125 -13.796875 C 36.488281 -12.410156 35.726562 -10.929688 34.84375 -9.359375 C 33.957031 -7.796875 32.921875 -6.296875 31.734375 -4.859375 C 30.554688 -3.429688 29.226562 -2.265625 27.75 -1.359375 C 26.28125 -0.453125 24.613281 0 22.75 0 C 20.53125 0 18.976562 -0.703125 18.09375 -2.109375 C 17.207031 -3.515625 16.765625 -5.171875 16.765625 -7.078125 C 16.765625 -8.804688 17.035156 -10.453125 17.578125 -12.015625 C 18.117188 -13.585938 18.648438 -15.019531 19.171875 -16.3125 C 19.691406 -17.601562 19.953125 -18.707031 19.953125 -19.625 C 19.953125 -20.394531 19.710938 -20.984375 19.234375 -21.390625 C 18.765625 -21.796875 18.144531 -22 17.375 -22 C 16.050781 -22 14.832031 -21.441406 13.71875 -20.328125 C 12.613281 -19.222656 11.71875 -17.785156 11.03125 -16.015625 C 10.351562 -14.242188 10.015625 -12.332031 10.015625 -10.28125 L 10.015625 -7.21875 C 10.015625 -6.082031 9.878906 -4.957031 9.609375 -3.84375 C 9.335938 -2.738281 8.8125 -1.820312 8.03125 -1.09375 C 7.257812 -0.363281 6.125 0 4.625 0 Z M 4.625 0 "/></g></g></g><g fill="#9face1" fill-opacity="1"><g transform="translate(75.022991, 208.927837)"><g><path d="M 7.21875 0 C 4.90625 0 3.15625 -0.953125 1.96875 -2.859375 C 0.789062 -4.765625 0.203125 -7.238281 0.203125 -10.28125 C 0.203125 -12.1875 0.441406 -14.21875 0.921875 -16.375 C 1.398438 -18.539062 2.101562 -20.664062 3.03125 -22.75 C 3.957031 -24.84375 5.125 -26.738281 6.53125 -28.4375 C 7.945312 -30.144531 9.582031 -31.507812 11.4375 -32.53125 C 13.300781 -33.550781 15.414062 -34.0625 17.78125 -34.0625 C 19.144531 -34.0625 20.203125 -33.9375 20.953125 -33.6875 C 21.703125 -33.4375 22.269531 -33.128906 22.65625 -32.765625 C 23.039062 -32.398438 23.367188 -32.09375 23.640625 -31.84375 C 23.910156 -31.59375 24.273438 -31.46875 24.734375 -31.46875 C 25.503906 -31.46875 26.125 -31.679688 26.59375 -32.109375 C 27.070312 -32.546875 27.609375 -32.976562 28.203125 -33.40625 C 28.796875 -33.84375 29.613281 -34.0625 30.65625 -34.0625 C 31.5625 -34.0625 32.1875 -33.832031 32.53125 -33.375 C 32.875 -32.925781 33.046875 -32.316406 33.046875 -31.546875 C 33.046875 -30.273438 32.691406 -29.015625 31.984375 -27.765625 C 31.273438 -26.515625 30.535156 -24.890625 29.765625 -22.890625 C 28.628906 -20.390625 28.207031 -18.476562 28.5 -17.15625 C 28.800781 -15.84375 29.703125 -15.1875 31.203125 -15.1875 C 32.378906 -15.1875 33.398438 -15.492188 34.265625 -16.109375 C 35.128906 -16.722656 35.898438 -17.578125 36.578125 -18.671875 C 36.941406 -19.210938 37.40625 -19.398438 37.96875 -19.234375 C 38.539062 -19.078125 39.019531 -18.769531 39.40625 -18.3125 C 39.789062 -17.863281 39.875 -17.414062 39.65625 -16.96875 C 38.832031 -15.375 37.953125 -13.609375 37.015625 -11.671875 C 36.085938 -9.742188 35.054688 -7.894531 33.921875 -6.125 C 32.785156 -4.351562 31.488281 -2.890625 30.03125 -1.734375 C 28.582031 -0.578125 26.90625 0 25 0 C 22.632812 0 20.960938 -0.953125 19.984375 -2.859375 C 19.015625 -4.765625 18.734375 -7.128906 19.140625 -9.953125 L 18.875 -9.953125 C 17.507812 -7.179688 15.828125 -4.828125 13.828125 -2.890625 C 11.828125 -0.960938 9.625 0 7.21875 0 Z M 14.03125 -14.109375 C 15.21875 -14.109375 16.253906 -14.445312 17.140625 -15.125 C 18.023438 -15.800781 18.710938 -16.628906 19.203125 -17.609375 C 19.703125 -18.585938 19.953125 -19.550781 19.953125 -20.5 C 19.953125 -21.632812 19.632812 -22.519531 19 -23.15625 C 18.363281 -23.789062 17.503906 -24.109375 16.421875 -24.109375 C 15.234375 -24.109375 14.207031 -23.789062 13.34375 -23.15625 C 12.488281 -22.519531 11.820312 -21.710938 11.34375 -20.734375 C 10.863281 -19.765625 10.625 -18.78125 10.625 -17.78125 C 10.625 -16.644531 10.929688 -15.75 11.546875 -15.09375 C 12.160156 -14.4375 12.988281 -14.109375 14.03125 -14.109375 Z M 14.03125 -14.109375 "/></g></g></g><g fill="#9face1" fill-opacity="1"><g transform="translate(110.040936, 208.927837)"><g><path d="M 6.875 0 C 4.332031 0 2.457031 -0.78125 1.25 -2.34375 C 0.0507812 -3.914062 -0.546875 -5.960938 -0.546875 -8.484375 C -0.546875 -11.003906 -0.046875 -13.71875 0.953125 -16.625 C 1.546875 -18.351562 2.203125 -20.210938 2.921875 -22.203125 C 3.648438 -24.203125 4.445312 -26.382812 5.3125 -28.75 C 4.3125 -28.75 3.550781 -29.007812 3.03125 -29.53125 C 2.507812 -30.050781 2.164062 -30.660156 2 -31.359375 C 1.84375 -32.066406 1.84375 -32.679688 2 -33.203125 C 2.164062 -33.734375 2.453125 -34 2.859375 -34 C 4.859375 -34 6.425781 -34.550781 7.5625 -35.65625 C 8.695312 -36.769531 9.492188 -37.941406 9.953125 -39.171875 C 10.765625 -41.171875 11.554688 -42.429688 12.328125 -42.953125 C 13.097656 -43.472656 13.914062 -43.734375 14.78125 -43.734375 C 16.050781 -43.734375 16.84375 -43.195312 17.15625 -42.125 C 17.476562 -41.0625 17.117188 -39.460938 16.078125 -37.328125 C 15.578125 -36.242188 15.300781 -35.414062 15.25 -34.84375 C 15.207031 -34.28125 15.503906 -34 16.140625 -34 L 19.6875 -34 C 20.144531 -34 20.441406 -33.679688 20.578125 -33.046875 C 20.710938 -32.410156 20.695312 -31.679688 20.53125 -30.859375 C 20.375 -30.046875 20.078125 -29.320312 19.640625 -28.6875 C 19.210938 -28.050781 18.660156 -27.734375 17.984375 -27.734375 C 15.890625 -27.734375 14.34375 -27.648438 13.34375 -27.484375 C 12.351562 -27.328125 11.648438 -26.929688 11.234375 -26.296875 C 10.828125 -25.660156 10.398438 -24.570312 9.953125 -23.03125 C 9.222656 -20.664062 9.320312 -18.78125 10.25 -17.375 C 11.1875 -15.96875 12.648438 -15.265625 14.640625 -15.265625 C 16.003906 -15.265625 17.21875 -15.566406 18.28125 -16.171875 C 19.351562 -16.785156 20.234375 -17.617188 20.921875 -18.671875 C 21.273438 -19.210938 21.734375 -19.398438 22.296875 -19.234375 C 22.867188 -19.078125 23.347656 -18.769531 23.734375 -18.3125 C 24.128906 -17.863281 24.210938 -17.414062 23.984375 -16.96875 C 23.566406 -16.195312 23.019531 -15.128906 22.34375 -13.765625 C 21.664062 -12.398438 20.847656 -10.921875 19.890625 -9.328125 C 18.941406 -7.742188 17.828125 -6.242188 16.546875 -4.828125 C 15.273438 -3.421875 13.832031 -2.265625 12.21875 -1.359375 C 10.613281 -0.453125 8.832031 0 6.875 0 Z M 6.875 0 "/></g></g></g></svg>